<mxfile host="Electron" agent="Mozilla/5.0 (Windows NT 10.0; Win64; x64) AppleWebKit/537.36 (KHTML, like Gecko) draw.io/26.0.15 Chrome/132.0.6834.196 Electron/34.2.0 Safari/537.36" version="26.0.15">
  <diagram name="Страница — 1" id="Y60VMbsTraXDv0s1zL59">
    <mxGraphModel dx="844" dy="518" grid="1" gridSize="10" guides="1" tooltips="1" connect="1" arrows="1" fold="1" page="1" pageScale="1" pageWidth="827" pageHeight="1169" math="0" shadow="0">
      <root>
        <mxCell id="0" />
        <mxCell id="1" parent="0" />
        <mxCell id="VBLWbsXnpfDjaeD-U-Oa-1" value="&lt;div&gt;&amp;lt;&amp;lt;Abstract&amp;gt;&amp;gt;&lt;/div&gt;animals.animal_species" style="swimlane;fontStyle=0;childLayout=stackLayout;horizontal=1;startSize=26;fillColor=none;horizontalStack=0;resizeParent=1;resizeParentMax=0;resizeLast=0;collapsible=1;marginBottom=0;whiteSpace=wrap;html=1;" parent="1" vertex="1">
          <mxGeometry x="330" y="30" width="166" height="96" as="geometry">
            <mxRectangle x="330" y="20" width="110" height="40" as="alternateBounds" />
          </mxGeometry>
        </mxCell>
        <mxCell id="3DC9Zo8tle-qay9hiMkG-16" value="&lt;div style=&quot;text-align: left;&quot;&gt;&lt;span style=&quot;background-color: transparent; color: light-dark(rgb(0, 0, 0), rgb(255, 255, 255));&quot;&gt;- id: int&lt;/span&gt;&lt;/div&gt;&lt;div style=&quot;text-align: left;&quot;&gt;- name: String&lt;/div&gt;&lt;div style=&quot;text-align: left;&quot;&gt;- birthDate: Date&lt;/div&gt;&lt;div style=&quot;text-align: left;&quot;&gt;- comands: List &amp;lt;String&amp;gt;&lt;/div&gt;" style="text;html=1;align=center;verticalAlign=middle;resizable=0;points=[];autosize=1;strokeColor=none;fillColor=none;" vertex="1" parent="VBLWbsXnpfDjaeD-U-Oa-1">
          <mxGeometry y="26" width="166" height="70" as="geometry" />
        </mxCell>
        <mxCell id="VBLWbsXnpfDjaeD-U-Oa-5" value="Pets" style="swimlane;fontStyle=0;childLayout=stackLayout;horizontal=1;startSize=26;fillColor=none;horizontalStack=0;resizeParent=1;resizeParentMax=0;resizeLast=0;collapsible=1;marginBottom=0;whiteSpace=wrap;html=1;" parent="1" vertex="1">
          <mxGeometry x="200" y="180" width="190" height="52" as="geometry" />
        </mxCell>
        <mxCell id="VBLWbsXnpfDjaeD-U-Oa-8" value="- idCounter: int" style="text;strokeColor=none;fillColor=none;align=left;verticalAlign=top;spacingLeft=4;spacingRight=4;overflow=hidden;rotatable=0;points=[[0,0.5],[1,0.5]];portConstraint=eastwest;whiteSpace=wrap;html=1;" parent="VBLWbsXnpfDjaeD-U-Oa-5" vertex="1">
          <mxGeometry y="26" width="190" height="26" as="geometry" />
        </mxCell>
        <mxCell id="VBLWbsXnpfDjaeD-U-Oa-9" value="Pack animals.animal_species" style="swimlane;fontStyle=0;childLayout=stackLayout;horizontal=1;startSize=26;fillColor=none;horizontalStack=0;resizeParent=1;resizeParentMax=0;resizeLast=0;collapsible=1;marginBottom=0;whiteSpace=wrap;html=1;" parent="1" vertex="1">
          <mxGeometry x="440" y="180" width="200" height="52" as="geometry" />
        </mxCell>
        <mxCell id="VBLWbsXnpfDjaeD-U-Oa-10" value="- idCounter: int" style="text;strokeColor=none;fillColor=none;align=left;verticalAlign=top;spacingLeft=4;spacingRight=4;overflow=hidden;rotatable=0;points=[[0,0.5],[1,0.5]];portConstraint=eastwest;whiteSpace=wrap;html=1;" parent="VBLWbsXnpfDjaeD-U-Oa-9" vertex="1">
          <mxGeometry y="26" width="200" height="26" as="geometry" />
        </mxCell>
        <mxCell id="VBLWbsXnpfDjaeD-U-Oa-13" value="Dog" style="swimlane;fontStyle=0;childLayout=stackLayout;horizontal=1;startSize=26;fillColor=none;horizontalStack=0;resizeParent=1;resizeParentMax=0;resizeLast=0;collapsible=1;marginBottom=0;whiteSpace=wrap;html=1;" parent="1" vertex="1">
          <mxGeometry x="30" y="290" width="150" height="52" as="geometry" />
        </mxCell>
        <mxCell id="VBLWbsXnpfDjaeD-U-Oa-37" value="" style="endArrow=block;endSize=16;endFill=0;html=1;rounded=0;entryX=-0.006;entryY=0.129;entryDx=0;entryDy=0;exitX=0.359;exitY=-0.019;exitDx=0;exitDy=0;exitPerimeter=0;entryPerimeter=0;" parent="1" source="VBLWbsXnpfDjaeD-U-Oa-5" target="VBLWbsXnpfDjaeD-U-Oa-1" edge="1">
          <mxGeometry width="160" relative="1" as="geometry">
            <mxPoint x="360" y="220" as="sourcePoint" />
            <mxPoint x="520" y="220" as="targetPoint" />
            <Array as="points">
              <mxPoint x="270" y="42" />
            </Array>
          </mxGeometry>
        </mxCell>
        <mxCell id="VBLWbsXnpfDjaeD-U-Oa-38" value="" style="endArrow=block;endSize=16;endFill=0;html=1;rounded=0;entryX=1.008;entryY=0.134;entryDx=0;entryDy=0;exitX=0.75;exitY=0;exitDx=0;exitDy=0;entryPerimeter=0;" parent="1" source="VBLWbsXnpfDjaeD-U-Oa-9" target="VBLWbsXnpfDjaeD-U-Oa-1" edge="1">
          <mxGeometry width="160" relative="1" as="geometry">
            <mxPoint x="630" y="90" as="sourcePoint" />
            <mxPoint x="746" y="40" as="targetPoint" />
            <Array as="points">
              <mxPoint x="590" y="44" />
            </Array>
          </mxGeometry>
        </mxCell>
        <mxCell id="JARtDjt6kSXcI1-T1TTw-1" value="Cat" style="swimlane;fontStyle=0;childLayout=stackLayout;horizontal=1;startSize=26;fillColor=none;horizontalStack=0;resizeParent=1;resizeParentMax=0;resizeLast=0;collapsible=1;marginBottom=0;whiteSpace=wrap;html=1;" parent="1" vertex="1">
          <mxGeometry x="30" y="370" width="150" height="52" as="geometry" />
        </mxCell>
        <mxCell id="JARtDjt6kSXcI1-T1TTw-5" value="Hamster" style="swimlane;fontStyle=0;childLayout=stackLayout;horizontal=1;startSize=26;fillColor=none;horizontalStack=0;resizeParent=1;resizeParentMax=0;resizeLast=0;collapsible=1;marginBottom=0;whiteSpace=wrap;html=1;" parent="1" vertex="1">
          <mxGeometry x="240" y="290" width="150" height="52" as="geometry" />
        </mxCell>
        <mxCell id="JARtDjt6kSXcI1-T1TTw-9" value="Horse" style="swimlane;fontStyle=0;childLayout=stackLayout;horizontal=1;startSize=26;fillColor=none;horizontalStack=0;resizeParent=1;resizeParentMax=0;resizeLast=0;collapsible=1;marginBottom=0;whiteSpace=wrap;html=1;" parent="1" vertex="1">
          <mxGeometry x="660" y="290" width="150" height="52" as="geometry" />
        </mxCell>
        <mxCell id="JARtDjt6kSXcI1-T1TTw-13" value="Camel" style="swimlane;fontStyle=0;childLayout=stackLayout;horizontal=1;startSize=26;fillColor=none;horizontalStack=0;resizeParent=1;resizeParentMax=0;resizeLast=0;collapsible=1;marginBottom=0;whiteSpace=wrap;html=1;" parent="1" vertex="1">
          <mxGeometry x="660" y="370" width="150" height="52" as="geometry" />
        </mxCell>
        <mxCell id="JARtDjt6kSXcI1-T1TTw-17" value="Donkey" style="swimlane;fontStyle=0;childLayout=stackLayout;horizontal=1;startSize=26;fillColor=none;horizontalStack=0;resizeParent=1;resizeParentMax=0;resizeLast=0;collapsible=1;marginBottom=0;whiteSpace=wrap;html=1;" parent="1" vertex="1">
          <mxGeometry x="440" y="290" width="150" height="52" as="geometry" />
        </mxCell>
        <mxCell id="3DC9Zo8tle-qay9hiMkG-10" value="" style="endArrow=block;endSize=16;endFill=0;html=1;rounded=0;entryX=0.799;entryY=1.06;entryDx=0;entryDy=0;entryPerimeter=0;exitX=0.75;exitY=0;exitDx=0;exitDy=0;" edge="1" parent="1" source="JARtDjt6kSXcI1-T1TTw-5" target="VBLWbsXnpfDjaeD-U-Oa-8">
          <mxGeometry width="160" relative="1" as="geometry">
            <mxPoint x="322" y="280" as="sourcePoint" />
            <mxPoint x="490" y="270" as="targetPoint" />
          </mxGeometry>
        </mxCell>
        <mxCell id="3DC9Zo8tle-qay9hiMkG-11" value="" style="endArrow=block;endSize=16;endFill=0;html=1;rounded=0;entryX=0.799;entryY=1.06;entryDx=0;entryDy=0;entryPerimeter=0;exitX=0.75;exitY=0;exitDx=0;exitDy=0;" edge="1" parent="1">
          <mxGeometry width="160" relative="1" as="geometry">
            <mxPoint x="481" y="290" as="sourcePoint" />
            <mxPoint x="480" y="234" as="targetPoint" />
          </mxGeometry>
        </mxCell>
        <mxCell id="3DC9Zo8tle-qay9hiMkG-12" value="" style="endArrow=block;endSize=16;endFill=0;html=1;rounded=0;entryX=0;entryY=0.25;entryDx=0;entryDy=0;exitX=0.75;exitY=0;exitDx=0;exitDy=0;" edge="1" parent="1" source="VBLWbsXnpfDjaeD-U-Oa-13" target="VBLWbsXnpfDjaeD-U-Oa-5">
          <mxGeometry width="160" relative="1" as="geometry">
            <mxPoint x="360" y="400" as="sourcePoint" />
            <mxPoint x="359" y="344" as="targetPoint" />
            <Array as="points">
              <mxPoint x="143" y="193" />
            </Array>
          </mxGeometry>
        </mxCell>
        <mxCell id="3DC9Zo8tle-qay9hiMkG-13" value="" style="endArrow=block;endSize=16;endFill=0;html=1;rounded=0;entryX=0.077;entryY=1.02;entryDx=0;entryDy=0;entryPerimeter=0;exitX=1;exitY=0.25;exitDx=0;exitDy=0;" edge="1" parent="1" source="JARtDjt6kSXcI1-T1TTw-1" target="VBLWbsXnpfDjaeD-U-Oa-8">
          <mxGeometry width="160" relative="1" as="geometry">
            <mxPoint x="310" y="400" as="sourcePoint" />
            <mxPoint x="309" y="344" as="targetPoint" />
            <Array as="points">
              <mxPoint x="215" y="383" />
            </Array>
          </mxGeometry>
        </mxCell>
        <mxCell id="3DC9Zo8tle-qay9hiMkG-14" value="" style="endArrow=block;endSize=16;endFill=0;html=1;rounded=0;entryX=1;entryY=0.25;entryDx=0;entryDy=0;exitX=0.25;exitY=0;exitDx=0;exitDy=0;" edge="1" parent="1" source="JARtDjt6kSXcI1-T1TTw-9" target="VBLWbsXnpfDjaeD-U-Oa-9">
          <mxGeometry width="160" relative="1" as="geometry">
            <mxPoint x="470" y="420" as="sourcePoint" />
            <mxPoint x="469" y="364" as="targetPoint" />
            <Array as="points">
              <mxPoint x="698" y="193" />
            </Array>
          </mxGeometry>
        </mxCell>
        <mxCell id="3DC9Zo8tle-qay9hiMkG-15" value="" style="endArrow=block;endSize=16;endFill=0;html=1;rounded=0;entryX=0.881;entryY=1.04;entryDx=0;entryDy=0;entryPerimeter=0;exitX=0;exitY=0.25;exitDx=0;exitDy=0;" edge="1" parent="1" source="JARtDjt6kSXcI1-T1TTw-13" target="VBLWbsXnpfDjaeD-U-Oa-10">
          <mxGeometry width="160" relative="1" as="geometry">
            <mxPoint x="470" y="410" as="sourcePoint" />
            <mxPoint x="469" y="354" as="targetPoint" />
            <Array as="points">
              <mxPoint x="620" y="383" />
            </Array>
          </mxGeometry>
        </mxCell>
      </root>
    </mxGraphModel>
  </diagram>
</mxfile>
